<svg viewBox="0 0 14 14" xmlns="http://www.w3.org/2000/svg"><g fill="none" fill-rule="evenodd"><path d="M0 0h14v14H0z"/><path d="M12.084 5.322l-1.608.282a.487.487 0 0 0-.398.56c.05.261.304.434.57.39l1.608-.282a.62.62 0 0 1 .714.39c.094.234.077.556-.25.761l-2.363 1.502a.699.699 0 0 1-.714.028.67.67 0 0 1-.365-.604V4.654c0-.616-.328-1.156-.877-1.45a1.686 1.686 0 0 0-1.719.065L.747 7.045C.08 7.472-.17 8.245.12 8.97c.291.725 1.017 1.124 1.8.983l5.185-.914a.487.487 0 0 0 .397-.56.494.494 0 0 0-.57-.39l-5.184.914a.62.62 0 0 1-.713-.39c-.095-.234-.078-.556.25-.762l5.934-3.776a.699.699 0 0 1 .714-.028.67.67 0 0 1 .365.604v3.695c0 .616.328 1.156.878 1.45a1.666 1.666 0 0 0 1.714-.064l2.363-1.502c.668-.427.918-1.2.627-1.925-.287-.724-1.013-1.119-1.796-.982" fill="#FFF" fill-rule="nonzero"/></g></svg>
