<svg viewBox="0 0 14 14" xmlns="http://www.w3.org/2000/svg"><g fill="none" fill-rule="evenodd"><circle fill="#FFF" fill-rule="nonzero" cx="7" cy="7" r="7"/><path d="M0 7c0 3.86 3.14 7 7 7s7-3.14 7-7-3.14-7-7-7-7 3.14-7 7m.242 0A6.766 6.766 0 0 1 7 .24 6.766 6.766 0 0 1 13.758 7 6.766 6.766 0 0 1 7 13.758 6.766 6.766 0 0 1 .242 7" fill="#FFF"/><path d="M2.181 5.081c1.79-1.174 3.767-1.856 7.12-1.277.186-.108.288-.21.335-.428-.837-.302-1.745-.409-2.918-.388-1.058.027-2.956.42-3.97 1.019l.308-.385c.71-.415 2.56-.969 3.944-.995.978-.019 1.486.035 2.645.348-.1-.199-.343-.298-.693-.455-1.125-.505-3.225-.552-4.946.204.218-.141.432-.273.71-.401.567-.26 1.495-.51 2.656-.492.928.016 2.029.339 2.704 1.009a.98.98 0 0 1 .205.384c.535.27.844.523 1.02.823.07.152.1.32.069.508.221.134.327.244.436.39.08.124.139.261.154.39.02.167.04.355-.136.574.186.09.327.342.35.455.084.402-.175.793-.517 1.1-.392.344-1.258.752-1.964.932-1.402.353-2.64.503-3.625.684.439.105 1.04.248 2.022.248 2.09 0 3.94-.99 3.94-.99s-.042.131-.083.242c-1.327.805-3.443 1.145-4.343 1.103a9.57 9.57 0 0 1-2.443-.41 4.53 4.53 0 0 0-.679.233c1.15.522 2.016.639 2.999.71 1 .074 2.659-.168 4.059-.674-.064.063-.097.165-.162.225-.716.374-2.233.753-2.993.785-.757.03-1.682.003-2.485-.15-.694-.134-1.256-.354-1.846-.611a.439.439 0 0 0-.18.295c2.303 1.203 4.462 1.23 6.917.467l-.225.215c-2.704 1.096-4.817.672-6.453-.117-.05-.025-.118-.05-.164-.08.15.264 1.4 1.176 2.796 1.29.963.079 2.138-.086 2.835-.366l-.408.214c-.338.166-1.231.542-2.484.46-1.667-.113-2.605-.85-3.025-1.236-.196-.18-.288-.39-.347-.646-.377-.198-.614-.401-.81-.707-.115-.18-.093-.382-.064-.551a.773.773 0 0 1 .044-.153c-.18-.13-.364-.27-.442-.412-.164-.297-.063-.553.05-.75-.098-.112-.19-.224-.231-.34a1.026 1.026 0 0 1-.04-.41c.032-.25.166-.48.337-.677.365-.42.936-.746 1.918-1.072.96-.318 1.347-.366 2.07-.533.846-.196 1.856-.259 2.704-.554-2.359-.415-4.809-.039-6.807 1.338l.136-.385zm8.036-1.455c-.03.117-.156.251-.242.343.257.067.516.161.765.255-.03-.228-.297-.45-.523-.598zM2.949 8.341a4.951 4.951 0 0 1-.384-.234c-.07.15.06.314.198.394.058-.058.125-.106.186-.16zm7.952-3.083c.169.083.321.144.47.249.107-.204.042-.336-.18-.525a2.052 2.052 0 0 1-.29.276zm-.504.308c-.346.16-.84.325-1.547.502-.58.146-1.994.35-3.513.679-.483.105-1.785.412-2.425.956.179.143.29.18.489.29.266-.17.623-.33 1.16-.473.932-.25 1.627-.356 2.465-.488.834-.132 2.398-.46 3.265-.77.282-.102.545-.232.741-.384-.06-.068-.618-.337-.635-.312zM3.832 9.194c.128-.076.281-.153.46-.222-.244-.1-.492-.209-.745-.327-.115.07-.217.147-.298.225.193.111.385.221.583.324zm-.802.08c-.003.156.091.295.3.465a.683.683 0 0 1 .126-.228 6.799 6.799 0 0 1-.426-.237zm1.178-2.88c1.707-.502 3.501-.655 5.315-1.14-.709-.192-1.097-.272-1.847-.184-1.09.128-2.286.365-3.311.67-.401.118-2.518.717-1.907 1.556 0 .01.363-.497 1.75-.903zm6.404-1.75a6.635 6.635 0 0 0-.995-.346 2.303 2.303 0 0 1-.632.354c.46.082.807.21 1.194.322.07.035.383-.26.433-.33zm.841 1.644c-.052.044-.109.088-.172.136-.387.297-.997.535-1.844.762-1.758.471-3.033.542-4.485.897a6.086 6.086 0 0 0-.851.277c.274.134.564.262.864.375.588-.167.872-.244 1.726-.39.325-.054 1.325-.23 2.052-.383 1.305-.278 3.22-.882 2.71-1.674z" fill="#0054C0"/></g></svg>
