<svg xmlns="http://www.w3.org/2000/svg" viewBox="0 0 14 14"><path d="M9.7.5L9.1.3l-.3.6.6.2c.1.1.3-.6.3-.6zm-.6 2.1l-.9-.3-.3.9.9.3.3-.9zm-.6-1.5L7.6 1l-.1.8.8.2.2-.9zm-3 11.8l.9.1.2-.9-.9-.1-.2.9zm-1.2.6l.6.2.2-.6-.6-.2-.2.6zm1.5-1.8l.3-.9-.9-.3-.3.9.9.3zm6-9.8l-.5-.4-.4.5.5.4c-.1 0 .4-.5.4-.5zM9.1 3.7l.7.6.6-.7-.6-.6-.7.7zm.1-1.4l.8.5.4-.8-.8-.4-.4.7zm-4.4 9.4l-.8-.5-.4.8.8.4.4-.7zm-2.6.4l.5.4.4-.5-.5-.4-.4.5zm2.7-1.8l-.8-.6-.6.7.7.6.7-.7zm8.3-6.5l-.3-.6-.6.3.3.6.6-.3zm-3.1.8l.5.8.9-.4-.5-.8-.9.4zm1.8-1.1l-.6-.7-.7.6.6.6.7-.5zm-9.8 7l.6.7.7-.6-.6-.6-.7.5zm-1.3-.3l.3.6.6-.3-.3-.6-.6.3zm3.1-.8l-.5-.9-.9.5.5.8.9-.4zm9.4-3.2l.7-.1-.1-.7-.7.1.1.7zm-2.4.6l1-.2-.2-1-1 .2.2 1zm1.9-1.5l-.3-.8-.8.3.3.8.8-.3zM2.3 9.2L2 8.4l-.8.3.3.8.8-.3zM.7 7.8l-.7.1.1.7.7-.1-.1-.7zm2.4-.6l-1 .2.2 1 1-.2c-.1-.1-.2-1-.2-1zm10.2.6l-.1.7.7.1.1-.7-.7-.1zm-1.4-.4l-1-.2-.2 1 1 .2.2-1zm1.1-.8h-.9v.9h.9v-.9zM1 7.4h.9v-.8H1v.8zM.8 5.6l-.6-.2-.2.7.7.1.1-.6zm1.3 1l1 .2.2-1-1-.2-.2 1zm10.2 3.9l.6.3.3-.6-.6-.3-.3.6zM11 9.8l.5-.8-.8-.5-.5.8.8.5zm1.8-1.1l-.8-.3-.3.8.8.3.3-.8zM1.2 5.3l.8.3.3-.8-.8-.3-.3.8zm.5-1.8l-.6-.3-.3.6.6.3.3-.6zm2.2 1.1L3 4.2l-.5.8.8.5c.1 0 .6-.9.6-.9zm6.9 7.5l.4.5.5-.4-.4-.5-.5.4zm-1.7-1.8l.7.7.7-.6-.6-.7-.8.6zm1.6.3l.7.6.6-.7-.8-.5-.5.6zM3.3 3.4l-.6-.6-.6.7.7.5.5-.6zm-.1-1.5l-.4-.5-.6.5.4.5.6-.5zm1.7 1.8L4.2 3l-.7.6.6.7.8-.6zm3.9 9.4l.2.6.6-.2-.2-.6-.6.2zm-.6-1.4l.9-.3-.3-.9-.9.3.3.9zm1 0l.4.8.8-.4-.4-.9-.8.5zM4.8 2.3l-.4-.7-.8.4.4.8.8-.5zM5.2.9L4.9.3l-.6.2.2.6.7-.2zm.9 2.3l-.3-.9-.9.3.3.9.9-.3zM6.7 14h.7v-.7h-.7v.7zm-.2-2.1h1v-1h-1v1zm1 .2l.1.9.9-.2-.2-.8-.8.1zm-1-10.2L6.4 1l-.9.1.2.9.8-.1zM7.3 0h-.6v.7h.7V0zm.2 2.1h-1v1h1v-1z" fill="#f78409"/></svg>