<svg xmlns="http://www.w3.org/2000/svg" viewBox="0 0 19 6"><path d="M10.177.642l-1.152 2.89h-.117V.013H7.27v5.96h1.39c.365 0 .696-.247.85-.63l1.15-2.893h.117v3.52h1.636V.014h-1.39c-.364 0-.696.245-.85.63M4.035.796l-.682 2.738h-.117L2.554.796c-.116-.464-.482-.783-.9-.783H.02V5.97h1.637V2.45h.117l.936 3.52h1.17l.935-3.52h.116v3.52h1.64V.014H4.933c-.417 0-.784.32-.9.783m9.085 1.923v3.25h1.634V4.076h1.757c.762 0 1.41-.565 1.65-1.354H13.12zM12.884.013c.22 1.386 1.268 2.437 2.53 2.437h2.814a2.34 2.34 0 0 0 .035-.406c0-1.122-.785-2.03-1.754-2.03h-3.626z" data-qa-file="Mir"/></svg>
