<svg xmlns="http://www.w3.org/2000/svg" viewBox="0 0 14 14"><path d="M13.3 12.6V1.4a.7.7 0 0 0-.7-.7H1.4a.699.699 0 0 0-.698.7v11.2c0 .386.313.7.698.7H12.6a.7.7 0 0 0 .7-.7zM12.6 0A1.4 1.4 0 0 1 14 1.4v11.2a1.4 1.4 0 0 1-1.4 1.4H1.4A1.4 1.4 0 0 1 0 12.6V1.4A1.4 1.4 0 0 1 1.399 0H12.6zM6.998 2.094c.734 0 1.6.705 2.32 1.887.745 1.224 1.19 2.74 1.19 4.058 0 1.926-1.085 3.869-3.51 3.869-2.421 0-3.505-1.943-3.505-3.87 0-1.316.444-2.833 1.189-4.057.718-1.182 1.585-1.887 2.316-1.887z" fill="#FFFFFE" fill-rule="evenodd"/></svg>
