<svg xmlns="http://www.w3.org/2000/svg" viewBox="0 0 14 14"><path d="M7 0C3.1 0 0 3.1 0 7s3.1 7 7 7 7-3.1 7-7-3.1-7-7-7M5.5 10.4c.1 0 .2.2.3.4 0 .2 0 .3-.1.5s-.3.3-.5.3c-.1 0-.2 0-.3-.1l-.3-.2c-1.4-.8-2.3-2.3-2.3-4v-.6c0-1.7.9-3.2 2.3-4l.3-.2c.1-.1.2-.1.3-.1.2 0 .4.1.5.3.1.1.1.3.1.5s-.3.4-.3.4c-.8.3-1.4 1.2-1.4 2.1v2.5c0 1 .6 1.9 1.4 2.2m6.2-3c0 1.7-.9 3.2-2.3 4l-.3.2c-.1.1-.2.1-.3.1-.2 0-.4-.1-.5-.3-.1-.1-.1-.3-.1-.5s.2-.4.3-.4c.8-.4 1.4-1.2 1.4-2.2V5.8c0-1-.5-1.8-1.4-2.2 0 0-.3-.1-.3-.4 0-.2 0-.3.1-.5s.3-.3.5-.3c.1 0 .2 0 .3.1 0 0 .3.1.3.2 1.4.8 2.3 2.3 2.3 4v.7z" fill="#fff"/></svg>
